<?xml version="1.0" encoding="UTF-8" standalone="no"?><!-- Generator: Gravit.io --><svg xmlns="http://www.w3.org/2000/svg" xmlns:xlink="http://www.w3.org/1999/xlink" style="isolation:isolate" viewBox="0 0 500 500" width="500pt" height="500pt"><defs><clipPath id="_clipPath_4QCll0lowORfYu9kyFZFQ0JNAklWbgWF"><rect width="500" height="500"/></clipPath></defs><g clip-path="url(#_clipPath_4QCll0lowORfYu9kyFZFQ0JNAklWbgWF)"><path d="M 35 0 L 465 0 C 484.317 0 500 15.683 500 35 L 500 465 C 500 484.317 484.317 500 465 500 L 35 500 C 15.683 500 0 484.317 0 465 L 0 35 C 0 15.683 15.683 0 35 0 Z" style="stroke:none;fill:#FFFFFF;stroke-miterlimit:10;"/><g><g><path d=" M 212.753 302.755 L 287.707 302.755 L 305.799 197.13 L 192.822 197.13 L 212.753 302.755 L 212.753 302.755 Z " fill="none"/><path d=" M 82.372 88.805 C 78.978 88.761 75.739 90.22 73.523 92.791 C 71.307 95.361 70.341 98.78 70.885 102.13 L 119.648 398.157 C 120.902 405.635 127.344 411.132 134.926 411.195 L 368.865 411.195 C 374.555 411.268 379.442 407.164 380.352 401.546 L 429.115 102.188 C 429.659 98.837 428.693 95.419 426.477 92.848 C 424.261 90.278 421.022 88.819 417.628 88.862 L 82.372 88.805 Z  M 287.707 302.755 L 213.04 302.755 L 192.822 197.13 L 305.799 197.13 L 287.707 302.755 Z " fill="rgb(38,132,255)"/><linearGradient id="_lgradient_1" x1="1.086333797493535" y1="0.13818021969528715" x2="0.4692659637955042" y2="0.6197795831327249" gradientTransform="matrix(288.733,0,0,214.066,124.875,197.13)" gradientUnits="userSpaceOnUse"><stop offset="18%" stop-opacity="1" style="stop-color:rgb(0,82,204)"/><stop offset="100%" stop-opacity="1" style="stop-color:rgb(38,132,255)"/></linearGradient><path d=" M 413.607 197.13 L 305.799 197.13 L 287.707 302.755 L 213.04 302.755 L 124.875 407.404 C 127.669 409.821 131.232 411.164 134.926 411.195 L 368.922 411.195 C 374.613 411.268 379.499 407.164 380.409 401.546 L 413.607 197.13 Z " fill="url(#_lgradient_1)"/></g></g></g></svg>